<svg width="20" height="17" viewBox="0 0 20 17" fill="none" xmlns="http://www.w3.org/2000/svg">
<path d="M4.19927 10.2442L9.63323 14.5831L9.63326 14.5831C9.68396 14.6236 9.70931 14.6438 9.73382 14.6592C9.8959 14.7604 10.1015 14.7604 10.2636 14.6592C10.2881 14.6438 10.3135 14.6236 10.3642 14.5831L15.7981 10.2442C17.6207 8.78883 17.8328 6.09558 16.2604 4.37294C14.613 2.56816 11.6825 2.904 10.4861 5.03467L10.4029 5.18289C10.2257 5.49834 9.77165 5.49834 9.59453 5.18289L9.5113 5.03467C8.31494 2.904 5.38435 2.56816 3.73698 4.37294C2.16459 6.09558 2.37665 8.78883 4.19927 10.2442Z" fill="#AF0202" stroke="#222222" stroke-width="2"/>
</svg>
